<svg width="52" height="20" viewBox="0 0 52 20" fill="none" xmlns="http://www.w3.org/2000/svg">
<path d="M9.50138 2.5785C8.89194 3.25404 7.91683 3.78687 6.94171 3.71075C6.81982 2.79734 7.29722 1.82683 7.85588 1.2274C8.46533 0.532826 9.53185 0.038059 10.3952 0C10.4968 0.951475 10.1007 1.88392 9.50138 2.5785ZM10.3851 3.89153C8.9732 3.81541 7.76446 4.6432 7.09407 4.6432C6.41353 4.6432 5.38763 3.92959 4.27031 3.94862C2.8178 3.96765 1.46687 4.73834 0.725376 5.96575C-0.798236 8.42055 0.329237 12.0552 1.80206 14.0533C2.52324 15.0428 3.38662 16.1275 4.52425 16.0894C5.60093 16.0514 6.02755 15.4329 7.32769 15.4329C8.638 15.4329 9.01383 16.0894 10.1515 16.0704C11.3297 16.0514 12.0712 15.0809 12.7924 14.0913C13.6151 12.9686 13.9503 11.8744 13.9706 11.8173C13.9503 11.7983 11.6954 10.9895 11.6751 8.55376C11.6548 6.5176 13.4526 5.5471 13.5339 5.49001C12.5181 4.08183 10.9336 3.92959 10.3851 3.89153ZM18.5415 1.13226V15.9657H20.9996V10.8944H24.4023C27.5105 10.8944 29.6943 8.89629 29.6943 6.00381C29.6943 3.11132 27.5511 1.13226 24.4836 1.13226H18.5415ZM20.9996 3.07326H23.8335C25.9666 3.07326 27.1854 4.13892 27.1854 6.01332C27.1854 7.88773 25.9665 8.96289 23.8233 8.96289H20.9996V3.07326ZM34.1839 16.0799C35.7278 16.0799 37.16 15.3473 37.8101 14.1865H37.8609V15.9657H40.1361V8.5823C40.1361 6.44148 38.3078 5.06185 35.4942 5.06185C32.8837 5.06185 30.9538 6.46051 30.8827 8.38249H33.0971C33.2799 7.46908 34.1839 6.86965 35.4231 6.86965C36.9264 6.86965 37.7695 7.52617 37.7695 8.73454V9.55281L34.7019 9.72407C31.8477 9.88582 30.3038 10.98 30.3038 12.883C30.3038 14.8049 31.8985 16.0799 34.1839 16.0799ZM34.8441 14.3197C33.5338 14.3197 32.7009 13.7298 32.7009 12.8259C32.7009 11.8934 33.5034 11.3511 35.0371 11.2655L37.7695 11.1037V11.941C37.7695 13.3302 36.5099 14.3197 34.8441 14.3197ZM43.1732 20C45.5704 20 46.6978 19.1437 47.6831 16.5461L52 5.20457H49.5013L46.6064 13.9677H46.5556L43.6608 5.20457H41.0909L45.2555 16.0038L45.032 16.6603C44.6562 17.7736 44.0467 18.2017 42.9599 18.2017C42.7669 18.2017 42.3911 18.1827 42.2387 18.1637V19.9429C42.3809 19.981 42.9904 20 43.1732 20Z" fill="white"/>
</svg>
