<svg width="28" height="28" viewBox="0 0 28 28" fill="none" xmlns="http://www.w3.org/2000/svg">
<path d="M10.9137 24.5001C11.7363 25.2262 12.8169 25.6668 14.0005 25.6668C15.184 25.6668 16.2646 25.2262 17.0873 24.5001M21.0005 9.33345C21.0005 7.47694 20.263 5.69646 18.9502 4.3837C17.6375 3.07095 15.857 2.33345 14.0005 2.33345C12.144 2.33345 10.3635 3.07095 9.05072 4.3837C7.73797 5.69646 7.00047 7.47694 7.00047 9.33345C7.00047 12.9387 6.09102 15.4071 5.07508 17.0398C4.21812 18.417 3.78964 19.1056 3.80535 19.2977C3.82275 19.5104 3.86781 19.5915 4.03921 19.7186C4.194 19.8335 4.89183 19.8335 6.28747 19.8335H21.7135C23.1091 19.8335 23.8069 19.8335 23.9617 19.7186C24.1331 19.5915 24.1782 19.5104 24.1956 19.2977C24.2113 19.1056 23.7828 18.417 22.9259 17.0398C21.9099 15.4071 21.0005 12.9387 21.0005 9.33345Z" stroke="#111111" stroke-width="1.5" stroke-linecap="round" stroke-linejoin="round"/>
</svg>
