<svg width="15" height="15" viewBox="0 0 15 15" fill="none" xmlns="http://www.w3.org/2000/svg">
<g clip-path="url(#clip0_6_465)">
<path d="M3.96094 3.43945L3.19629 5.625H11.8037L11.0391 3.43945C10.9072 3.06445 10.5527 2.8125 10.1543 2.8125H4.8457C4.44727 2.8125 4.09277 3.06445 3.96094 3.43945ZM1.16016 5.76562L2.19141 2.82129C2.58691 1.69336 3.65039 0.9375 4.8457 0.9375H10.1543C11.3496 0.9375 12.4131 1.69336 12.8086 2.82129L13.8398 5.76562C14.5195 6.04688 15 6.71777 15 7.5V11.7188V13.125C15 13.6436 14.5811 14.0625 14.0625 14.0625H13.125C12.6064 14.0625 12.1875 13.6436 12.1875 13.125V11.7188H2.8125V13.125C2.8125 13.6436 2.39355 14.0625 1.875 14.0625H0.9375C0.418945 14.0625 0 13.6436 0 13.125V11.7188V7.5C0 6.71777 0.480469 6.04688 1.16016 5.76562ZM3.75 8.4375C3.75 8.18886 3.65123 7.9504 3.47541 7.77459C3.2996 7.59877 3.06114 7.5 2.8125 7.5C2.56386 7.5 2.3254 7.59877 2.14959 7.77459C1.97377 7.9504 1.875 8.18886 1.875 8.4375C1.875 8.68614 1.97377 8.9246 2.14959 9.10041C2.3254 9.27623 2.56386 9.375 2.8125 9.375C3.06114 9.375 3.2996 9.27623 3.47541 9.10041C3.65123 8.9246 3.75 8.68614 3.75 8.4375ZM12.1875 9.375C12.4361 9.375 12.6746 9.27623 12.8504 9.10041C13.0262 8.9246 13.125 8.68614 13.125 8.4375C13.125 8.18886 13.0262 7.9504 12.8504 7.77459C12.6746 7.59877 12.4361 7.5 12.1875 7.5C11.9389 7.5 11.7004 7.59877 11.5246 7.77459C11.3488 7.9504 11.25 8.18886 11.25 8.4375C11.25 8.68614 11.3488 8.9246 11.5246 9.10041C11.7004 9.27623 11.9389 9.375 12.1875 9.375Z" fill="#686868"/>
</g>
<defs>
<clipPath id="clip0_6_465">
<rect width="15" height="15" fill="white"/>
</clipPath>
</defs>
</svg>
