<svg width="26" height="28" viewBox="0 0 26 28" fill="none" xmlns="http://www.w3.org/2000/svg">
<rect x="7" y="12" width="1.5" height="1.5" rx="0.75" fill="#797979"/>
<rect x="11.5" y="12.375" width="7" height="0.75" rx="0.375" fill="#797979"/>
<rect x="7" y="16" width="1.5" height="1.5" rx="0.75" fill="#797979"/>
<rect x="11.5" y="16.375" width="7" height="0.75" rx="0.375" fill="#797979"/>
<rect x="7" y="20" width="1.5" height="1.5" rx="0.75" fill="#797979"/>
<rect x="11.5" y="20.375" width="7" height="0.75" rx="0.375" fill="#797979"/>
<path fill-rule="evenodd" clip-rule="evenodd" d="M7.37889 5H6.00161C4.34476 5 3 6.34315 3 8V23C3 24.6569 4.34315 26 6 26H20C21.6569 26 23 24.6569 23 23V8C23 6.34315 21.6552 5 19.9984 5H18.6211C18.8604 5.35752 19 5.78746 19 6.25C19 6.33766 18.985 6.42181 18.9573 6.5H18.9684H18.9974H19.0264H19.0554H19.0844H19.1135H19.1426H19.1717H19.2008H19.23H19.2592H19.2884H19.3177H19.347H19.3763H19.4056H19.435H19.4644H19.4938H19.5232H19.5527H19.5822H19.6118H19.6413H19.6709H19.7005H19.7302H19.7599H19.7896H19.8193H19.8491H19.8789H19.9087H19.9386H19.9685H19.9984C20.8279 6.5 21.5 7.17262 21.5 8V23C21.5 23.8284 20.8284 24.5 20 24.5H6C5.17157 24.5 4.5 23.8284 4.5 23V8C4.5 7.17262 5.17214 6.5 6.00161 6.5H6.03153H6.06142H6.09128H6.12111H6.15091H6.18068H6.21042H6.24013H6.26981H6.29947H6.32909H6.35868H6.38825H6.41778H6.44729H6.47677H6.50621H6.53564H6.56503H6.59439H6.62373H6.65304H6.68232H6.71157H6.7408H6.76999H6.79916H6.82831H6.85742H6.88651H6.91557H6.94461H6.97362H7.0026H7.03156H7.04268C7.01504 6.42181 7 6.33766 7 6.25C7 5.78746 7.13957 5.35752 7.37889 5Z" fill="#797979"/>
<path d="M10 3.75H16C17.2426 3.75 18.25 4.75736 18.25 6V8C18.25 8.13807 18.1381 8.25 18 8.25H8C7.86193 8.25 7.75 8.13807 7.75 8V6C7.75 4.75736 8.75736 3.75 10 3.75Z" stroke="#797979" stroke-width="1.5"/>
</svg>
