<svg width="24" height="24" viewBox="0 0 24 24" fill="none" xmlns="http://www.w3.org/2000/svg">
<rect width="24" height="24" fill="white"/>
<path d="M4.5 9C4.5 8.17157 5.17157 7.5 6 7.5V6.5C4.61929 6.5 3.5 7.61929 3.5 9H4.5ZM4.5 15V9H3.5V15H4.5ZM6 16.5C5.17157 16.5 4.5 15.8284 4.5 15H3.5C3.5 16.3807 4.61929 17.5 6 17.5V16.5ZM19 16.5H6V17.5H19V16.5ZM20.5 15C20.5 15.8284 19.8284 16.5 19 16.5V17.5C20.3807 17.5 21.5 16.3807 21.5 15H20.5ZM20.5 13.8888V15H21.5V13.8888H20.5ZM20.7778 13.1666C20.1334 13.1666 19.6111 12.6443 19.6111 11.9999H18.6111C18.6111 13.1965 19.5812 14.1666 20.7778 14.1666V13.1666ZM19.6111 11.9999C19.6111 11.3556 20.1334 10.8333 20.7778 10.8333V9.83325C19.5812 9.83325 18.6111 10.8033 18.6111 11.9999H19.6111ZM20.5 9V10.111H21.5V9H20.5ZM19 7.5C19.8284 7.5 20.5 8.17157 20.5 9H21.5C21.5 7.61929 20.3807 6.5 19 6.5V7.5ZM6 7.5H19V6.5H6V7.5ZM20.7778 10.8333C21.1766 10.8333 21.5 10.5099 21.5 10.111H20.5C20.5 9.95762 20.6244 9.83325 20.7778 9.83325V10.8333ZM21.5 13.8888C21.5 13.4899 21.1766 13.1666 20.7778 13.1666V14.1666C20.6244 14.1666 20.5 14.0422 20.5 13.8888H21.5Z" fill="#292929"/>
<circle cx="14.5" cy="9" r="0.5" fill="#292929"/>
<circle cx="14.5" cy="11" r="0.5" fill="#292929"/>
<circle cx="14.5" cy="13" r="0.5" fill="#292929"/>
<circle cx="14.5" cy="15" r="0.5" fill="#292929"/>
</svg>
