<svg width="15" height="15" viewBox="0 0 15 15" fill="none" xmlns="http://www.w3.org/2000/svg">
<g clip-path="url(#clip0_6_441)">
<path d="M4.125 8.4375C4.46972 8.4375 4.81106 8.35263 5.12954 8.18773C5.44802 8.02283 5.7374 7.78114 5.98116 7.47644C6.22491 7.17175 6.41827 6.81003 6.55018 6.41193C6.6821 6.01383 6.75 5.58715 6.75 5.15625C6.75 4.72535 6.6821 4.29867 6.55018 3.90057C6.41827 3.50247 6.22491 3.14075 5.98116 2.83606C5.7374 2.53136 5.44802 2.28967 5.12954 2.12477C4.81106 1.95987 4.46972 1.875 4.125 1.875C3.78028 1.875 3.43894 1.95987 3.12046 2.12477C2.80198 2.28967 2.5126 2.53136 2.26884 2.83606C2.02509 3.14075 1.83173 3.50247 1.69982 3.90057C1.5679 4.29867 1.5 4.72535 1.5 5.15625C1.5 5.58715 1.5679 6.01383 1.69982 6.41193C1.83173 6.81003 2.02509 7.17175 2.26884 7.47644C2.5126 7.78114 2.80198 8.02283 3.12046 8.18773C3.43894 8.35263 3.78028 8.4375 4.125 8.4375ZM8.25 5.15625C8.25 7.68457 6.79453 9.78809 4.875 10.2275V11.25H5.625C6.03984 11.25 6.375 11.6689 6.375 12.1875C6.375 12.7061 6.03984 13.125 5.625 13.125H4.875V14.0625C4.875 14.5811 4.53984 15 4.125 15C3.71016 15 3.375 14.5811 3.375 14.0625V13.125H2.625C2.21016 13.125 1.875 12.7061 1.875 12.1875C1.875 11.6689 2.21016 11.25 2.625 11.25H3.375V10.2275C1.45547 9.78809 0 7.68457 0 5.15625C0 2.30859 1.84688 0 4.125 0C6.40312 0 8.25 2.30859 8.25 5.15625ZM6.37266 10.5645C6.825 10.2686 7.2375 9.8877 7.59375 9.43945C8.0625 9.98145 8.68828 10.3125 9.37734 10.3125C10.8281 10.3125 12.0023 8.84473 12.0023 7.03125C12.0023 5.21777 10.8281 3.75 9.37734 3.75C9.20859 3.75 9.04219 3.77051 8.88281 3.80859C8.76797 3.17871 8.57812 2.58691 8.32031 2.04492C8.65547 1.93359 9.00937 1.875 9.375 1.875C10.2422 1.875 11.0484 2.20898 11.7141 2.7832L12.1969 2.17969L11.4141 1.20117C11.2523 0.999023 11.2055 0.697266 11.2922 0.433594C11.3789 0.169922 11.5852 0 11.8125 0H14.4375C14.7492 0 15 0.313477 15 0.703125V3.98438C15 4.26855 14.8641 4.52637 14.6531 4.63477C14.4422 4.74316 14.2008 4.68457 14.0391 4.48242L13.2562 3.50391L12.7734 4.10742C13.2305 4.93945 13.5 5.94434 13.5 7.03125C13.5 9.87891 11.6531 12.1875 9.375 12.1875C8.19141 12.1875 7.125 11.5635 6.37266 10.5645Z" fill="#292929"/>
</g>
<defs>
<clipPath id="clip0_6_441">
<rect width="15" height="15" fill="white"/>
</clipPath>
</defs>
</svg>
