<svg width="27" height="28" viewBox="0 0 27 28" fill="none" xmlns="http://www.w3.org/2000/svg">
<path d="M10.1546 24.5V15.8666C10.1546 15.2133 10.1546 14.8866 10.2708 14.637C10.3731 14.4175 10.5362 14.239 10.7368 14.1271C10.9649 14 11.2635 14 11.8607 14H14.8463C15.4434 14 15.742 14 15.9701 14.1271C16.1707 14.239 16.3339 14.4175 16.4361 14.637C16.5523 14.8866 16.5523 15.2133 16.5523 15.8666V24.5M12.3061 3.22467L5.07423 9.37898C4.59081 9.79037 4.3491 9.99606 4.17497 10.2537C4.02072 10.4819 3.90581 10.7389 3.83589 11.0122C3.75696 11.3208 3.75696 11.6558 3.75696 12.3259V20.7666C3.75696 22.0734 3.75696 22.7268 3.98939 23.226C4.19385 23.665 4.52009 24.022 4.92135 24.2457C5.37753 24.5 5.97471 24.5 7.16905 24.5H19.5379C20.7322 24.5 21.3294 24.5 21.7856 24.2457C22.1869 24.022 22.5131 23.665 22.7175 23.226C22.95 22.7268 22.95 22.0734 22.95 20.7666V12.3259C22.95 11.6558 22.95 11.3208 22.871 11.0122C22.8011 10.7389 22.6862 10.4819 22.532 10.2537C22.3578 9.99606 22.1161 9.79037 21.6327 9.37898L14.4009 3.22467C14.0263 2.90587 13.839 2.74647 13.6321 2.6852C13.4496 2.63114 13.2573 2.63114 13.0748 2.6852C12.868 2.74647 12.6807 2.90587 12.3061 3.22467Z" stroke="#797979" stroke-width="1.5" stroke-linecap="round" stroke-linejoin="round"/>
</svg>
