<svg width="70" height="20" viewBox="0 0 70 20" fill="none" xmlns="http://www.w3.org/2000/svg">
<g clip-path="url(#clip0_1_1932)">
<path fill-rule="evenodd" clip-rule="evenodd" d="M10.6755 0C4.77716 0 0 3.52941 0 7.82805C0 10.6335 1.99861 13.0769 4.97214 14.4796L3.94847 17.9638C3.89972 18.0543 3.94847 18.19 4.04596 18.2805C4.09471 18.3258 4.1922 18.371 4.24095 18.371C4.28969 18.371 4.38719 18.3258 4.43593 18.3258L8.77437 15.6109C9.40808 15.7014 10.0418 15.7466 10.7242 15.7466C16.6226 15.7466 21.3997 12.2172 21.3997 7.91855C21.3997 3.52941 16.6226 0 10.6755 0Z" fill="black"/>
<path d="M30.4178 14.3439V19.4118H26.5181V0.724012H29.2479L29.7353 1.90048C30.564 1.13125 31.8314 0.316772 33.83 0.316772C37.6323 0.316772 39.4359 2.94121 39.4359 7.23985C39.4359 11.7195 36.6573 14.5702 32.6601 14.5702C31.8802 14.6154 31.2952 14.5702 30.4178 14.3439ZM30.4178 3.75569V11.81C30.6128 11.8552 31.149 11.9005 31.6852 11.9005C34.4637 11.9005 35.5362 10.0905 35.5362 7.23985C35.5362 4.75116 34.805 3.25795 32.6114 3.25795C31.8314 3.25795 31.0515 3.48419 30.4178 3.75569Z" fill="black"/>
<path d="M47.869 6.01809H50.0626V5.5656C50.0626 4.07238 49.1364 3.39365 47.5765 3.39365C46.3579 3.39365 44.8467 3.71039 43.5793 4.29863L42.5069 1.90044C43.8718 0.995462 46.0167 0.407227 47.9178 0.407227C51.6225 0.407227 53.6699 2.21718 53.6699 5.70134V14.2534H50.9401L50.5501 13.1222C48.9902 14.1629 47.5278 14.6154 46.2604 14.6154C43.4331 14.6154 41.8245 13.0317 41.8245 10.362C41.8245 7.5113 43.9206 6.01809 47.869 6.01809ZM50.0626 10.7692V8.28053H48.259C46.2604 8.28053 45.2367 8.95926 45.2367 10.2715C45.2367 11.267 45.7729 11.7647 46.9428 11.7647C48.064 11.8099 49.4289 11.3122 50.0626 10.7692Z" fill="black"/>
<path d="M65.4667 12.8507C64.1018 16.1991 62.4931 18.6425 60.1046 20L57.716 17.9638C59.0809 16.8326 60.1046 15.7466 60.9332 14.2987L55.7661 1.22173L59.6171 0.271506L62.9319 10.8597L66.1979 0.226257L70.0001 1.22173L65.4667 12.8507Z" fill="black"/>
</g>
<defs>
<clipPath id="clip0_1_1932">
<rect width="70" height="20" fill="white"/>
</clipPath>
</defs>
</svg>
