<svg width="73" height="21" viewBox="0 0 73 21" fill="none" xmlns="http://www.w3.org/2000/svg">
<g clip-path="url(#clip0_1_1910)">
<path fill-rule="evenodd" clip-rule="evenodd" d="M40.3162 20.6833H71.7664C72.0936 20.6833 72.4073 20.557 72.6386 20.3321C72.87 20.1072 72.9999 19.8022 72.9999 19.4842V1.19898C72.9999 0.880972 72.8699 0.576008 72.6386 0.351161C72.4073 0.126315 72.0936 0 71.7664 0H40.3162C39.9891 0 39.6754 0.126315 39.4441 0.351161C39.2128 0.576008 39.0828 0.880972 39.0828 1.19898V19.4842C39.0828 19.8022 39.2127 20.1072 39.444 20.3321C39.6754 20.557 39.9891 20.6833 40.3162 20.6833ZM47.8684 6.83612C48.5571 6.83612 49.063 7.36885 49.063 8.06571C49.063 8.76256 48.5571 9.2953 47.8684 9.2953H46.3929V6.83612H47.8684ZM47.8684 11.3446C49.8077 11.3446 51.3114 9.88274 51.3114 8.06571C51.3114 6.24867 49.8077 4.78686 47.8684 4.78686H44.4756C44.2927 4.78686 44.1445 4.93087 44.1445 5.10875V14.0284C44.1445 14.2061 44.2927 14.3501 44.4756 14.3501H46.062C46.2448 14.3501 46.3929 14.2061 46.3929 14.0284V11.3446H47.8684ZM57.5523 10.9347C57.5523 9.91019 56.8497 9.26804 55.8801 9.26804C54.9104 9.26804 54.2078 9.91019 54.2078 10.9347C54.2078 11.9593 54.9104 12.6014 55.8801 12.6014C56.8497 12.6014 57.5523 11.9594 57.5523 10.9347ZM59.6602 7.68866V14.1808C59.6602 14.2744 59.5823 14.3502 59.486 14.3502H57.7265C57.6304 14.3502 57.5523 14.2744 57.5523 14.1808V13.7082C57.0886 14.2272 56.3999 14.5414 55.4586 14.5414C53.6175 14.5414 52.0999 12.9704 52.0999 10.9347C52.0999 8.89906 53.6175 7.32801 55.4586 7.32801C56.3999 7.32801 57.0886 7.64229 57.5523 8.16145V7.68866C57.5523 7.59501 57.6304 7.5193 57.7265 7.5193H59.486C59.5823 7.5193 59.6602 7.59501 59.6602 7.68866ZM65.0571 11.6589L66.6747 7.69736C66.6962 7.64482 66.7335 7.59977 66.7816 7.56803C66.8297 7.53628 66.8866 7.51931 66.9447 7.51929H68.7394C68.8624 7.51929 68.9466 7.63994 68.9013 7.75098L65.1608 16.9115C65.1394 16.964 65.1022 17.0091 65.0541 17.0409C65.006 17.0727 64.9492 17.0897 64.891 17.0897H63.0962C62.9732 17.0897 62.889 16.9689 62.9342 16.8577L63.9514 14.367L61.1606 7.75297C61.1135 7.64138 61.1979 7.51929 61.3218 7.51929H63.1157C63.1733 7.51931 63.2296 7.53595 63.2774 7.56711C63.3252 7.59826 63.3625 7.64252 63.3844 7.69428L65.0571 11.6589Z" fill="white"/>
<path d="M11.8432 4.48999H10.0668C9.93596 4.49003 9.81047 4.54058 9.71793 4.63052C9.62538 4.72046 9.57334 4.84243 9.57324 4.96965V15.7159C9.57329 15.8431 9.62531 15.9652 9.71786 16.0551C9.81041 16.1451 9.93593 16.1957 10.0668 16.1957H11.8432C11.9741 16.1956 12.0996 16.1451 12.1921 16.0551C12.2846 15.9651 12.3366 15.8431 12.3366 15.7159V4.96965C12.3365 4.84246 12.2845 4.72052 12.192 4.63058C12.0995 4.54065 11.9741 4.49008 11.8432 4.48999Z" fill="white"/>
<path d="M7.55008 13.5091H2.76339V4.96971C2.76329 4.84253 2.71128 4.72058 2.61877 4.63064C2.52626 4.54071 2.40082 4.49014 2.27 4.49005H0.493389C0.362564 4.49014 0.237126 4.54071 0.144619 4.63064C0.0521121 4.72058 9.86984e-05 4.84253 0 4.96971V15.716C4.93427e-05 15.8432 0.0520413 15.9652 0.144554 16.0551C0.237066 16.1451 0.362532 16.1957 0.493389 16.1958H7.55008C7.68094 16.1957 7.80641 16.1451 7.89892 16.0551C7.99143 15.9652 8.04342 15.8432 8.04347 15.716V13.9888C8.04337 13.8616 7.99136 13.7396 7.89885 13.6497C7.80635 13.5598 7.68091 13.5092 7.55008 13.5091Z" fill="white"/>
<path d="M33.9507 7.17656C34.0815 7.17647 34.207 7.1259 34.2995 7.03597C34.392 6.94603 34.444 6.82408 34.4441 6.6969V4.96971C34.444 4.84253 34.392 4.72058 34.2995 4.63064C34.207 4.54071 34.0815 4.49014 33.9507 4.49005H26.894C26.7632 4.49014 26.6378 4.54071 26.5453 4.63064C26.4527 4.72058 26.4007 4.84253 26.4006 4.96971V15.716C26.4007 15.8432 26.4527 15.9652 26.5452 16.0551C26.6377 16.1451 26.7632 16.1957 26.894 16.1958H33.9507C34.0816 16.1957 34.207 16.1451 34.2996 16.0551C34.3921 15.9652 34.4441 15.8432 34.4441 15.716V13.9888C34.444 13.8616 34.392 13.7396 34.2995 13.6497C34.207 13.5598 34.0815 13.5092 33.9507 13.5091H29.164V11.6861H33.9507C34.0815 11.686 34.207 11.6354 34.2995 11.5455C34.392 11.4556 34.444 11.3336 34.4441 11.2064V9.47924C34.444 9.35205 34.392 9.2301 34.2995 9.14017C34.207 9.05024 34.0815 8.99967 33.9507 8.99958H29.164V7.17656H33.9507Z" fill="white"/>
<path d="M24.0318 4.48999H22.2554C22.1245 4.49003 21.999 4.54058 21.9065 4.63052C21.814 4.72046 21.7619 4.84243 21.7618 4.96965V11.1877L17.1128 4.72547C16.9811 4.54216 16.7845 4.48999 16.5663 4.48999C16.5387 4.48546 16.5106 4.48999 16.4817 4.48999H14.7053C14.5745 4.49008 14.449 4.54065 14.3565 4.63058C14.264 4.72052 14.212 4.84247 14.2119 4.96965V15.7159C14.212 15.8431 14.264 15.9651 14.3565 16.0551C14.449 16.1451 14.5744 16.1956 14.7053 16.1957H16.4817C16.6126 16.1957 16.7381 16.1451 16.8307 16.0551C16.9232 15.9652 16.9753 15.8431 16.9753 15.7159V9.2216L21.8224 15.9592C21.8397 15.9834 21.8591 16.0054 21.8792 16.026C21.9627 16.1215 22.0838 16.1863 22.2205 16.1957H22.3096H24.0318C24.1627 16.1956 24.2881 16.1451 24.3806 16.0551C24.4732 15.9651 24.5252 15.8431 24.5252 15.7159V4.96965C24.5251 4.84247 24.4731 4.72052 24.3806 4.63058C24.2881 4.54065 24.1626 4.49008 24.0318 4.48999Z" fill="white"/>
</g>
<defs>
<clipPath id="clip0_1_1910">
<rect width="73" height="20.6833" fill="white"/>
</clipPath>
</defs>
</svg>
