<svg width="1024" height="300" viewBox="0 0 1024 300" fill="none" xmlns="http://www.w3.org/2000/svg">
<path d="M167.178 147.925C163.315 147.925 160.155 150.734 159.979 154.597C159.628 157.406 159.277 160.566 158.925 162.322C153.658 183.391 135.223 199.017 113.451 199.017C87.6418 199.017 66.5727 177.07 66.5727 150.207C66.5727 123.344 87.6418 101.573 113.451 101.573C130.658 101.573 145.582 111.054 153.834 125.451C155.063 127.734 157.521 129.138 160.154 129.138C165.773 129.138 169.284 123.169 166.475 118.252C155.765 99.4659 136.101 87 113.451 87C79.5653 87 52 115.268 52 150.207C52 185.147 79.5653 213.414 113.451 213.414C143.299 213.414 168.231 191.467 173.674 162.322C174.025 160.742 174.376 158.284 174.552 155.65C174.727 151.436 171.391 147.925 167.178 147.925ZM108.711 155.123C108.711 159.162 112.047 162.322 116.085 162.322H140.139C144.177 162.322 147.337 159.162 147.337 155.123C147.337 151.085 144.177 147.925 140.139 147.925H116.085C112.047 147.925 108.711 151.085 108.711 155.123Z" fill="#6485EE"/>
<path d="M245.043 117.901C223.272 121.939 206.768 141.604 206.768 165.307V204.46C206.768 208.323 210.104 211.659 213.967 211.659C218.005 211.659 221.341 208.323 221.341 204.46V165.307C221.341 148.627 232.753 134.932 247.853 132.123C251.364 131.421 253.647 128.436 253.647 124.924C253.647 120.359 249.608 117.023 245.043 117.901Z" fill="#7881E4"/>
<path d="M322.235 117.023C296.425 117.023 275.356 138.619 275.356 165.307C275.356 191.819 296.425 213.414 322.235 213.414C348.044 213.414 369.113 191.819 369.113 165.307C369.113 138.619 348.044 117.023 322.235 117.023ZM289.929 165.307C289.929 146.696 304.501 131.596 322.235 131.596C340.143 131.596 354.54 146.696 354.54 165.307C354.54 183.742 340.143 198.842 322.235 198.842C304.501 198.842 289.929 183.742 289.929 165.307Z" fill="#8D7ED9"/>
<path d="M479.073 120.71C475.035 120.71 471.699 123.871 471.699 127.909V170.398C471.699 186.2 459.409 198.842 444.485 198.842C429.385 198.842 417.095 186.2 417.095 170.398V127.909C417.095 123.871 413.759 120.71 409.721 120.71C405.858 120.71 402.522 123.871 402.522 127.909V170.749C402.698 194.277 421.485 213.414 444.485 213.414C467.485 213.414 486.096 194.277 486.272 170.749V127.909C486.272 123.871 483.112 120.71 479.073 120.71Z" fill="#A17ACF"/>
<path d="M563.524 117.023C540.874 117.023 522.439 135.986 522.439 159.162V204.46C522.439 208.323 525.775 211.659 529.638 211.659C533.676 211.659 537.012 208.323 537.012 204.46V159.162C537.012 143.886 548.951 131.596 563.524 131.596C578.096 131.596 590.036 143.886 590.036 159.162V204.46C590.036 208.323 593.196 211.659 597.234 211.659C601.272 211.659 604.608 208.323 604.608 204.46V159.162C604.608 135.986 586.173 117.023 563.524 117.023Z" fill="#B576C5"/>
<path d="M724.725 88.7559C720.686 88.7559 717.351 92.0918 717.351 95.9545V130.367C708.923 122.115 697.686 117.024 685.045 117.024C659.235 117.024 638.166 138.619 638.166 165.307C638.166 191.819 659.235 213.414 685.045 213.414C697.686 213.414 708.923 208.323 717.351 200.071V204.46C717.351 208.323 720.686 211.659 724.725 211.659C728.763 211.659 731.923 208.323 731.923 204.46V95.9545C731.923 92.0918 728.763 88.7559 724.725 88.7559ZM652.739 165.307C652.739 146.696 667.312 131.596 685.045 131.596C702.953 131.596 717.351 146.696 717.351 165.307C717.351 183.742 702.953 198.842 685.045 198.842C667.312 198.842 652.739 183.742 652.739 165.307Z" fill="#C972BB"/>
<path d="M839.311 88.7559H839.135C835.097 88.7559 831.937 91.9162 831.937 95.9545V170.574C831.937 186.2 819.822 198.842 804.722 198.842C791.73 198.842 780.844 189.185 778.211 176.368C777.508 173.032 774.523 170.574 771.012 170.574C766.623 170.574 763.111 174.788 763.989 179.177C767.852 198.666 784.707 213.414 804.722 213.414C827.723 213.414 846.509 194.277 846.509 170.574V95.9545C846.509 91.9162 843.173 88.7559 839.311 88.7559Z" fill="#DE6FB0"/>
<path d="M935.656 88.7559H891.762C887.899 88.7559 884.563 92.0918 884.563 95.9545C884.563 99.9927 887.899 103.329 891.762 103.329H935.656C947.595 103.329 957.427 112.985 957.427 124.924C957.427 136.864 947.595 146.696 935.656 146.696H891.762C887.899 146.696 884.563 149.856 884.563 153.894V204.46C884.563 208.323 887.899 211.659 891.762 211.659C895.8 211.659 899.136 208.323 899.136 204.46V161.269H935.656C955.672 161.269 972 144.94 972 124.924C972 105.084 955.672 88.7559 935.656 88.7559Z" fill="#F26BA6"/>
</svg>
