<svg width="15" height="15" viewBox="0 0 15 15" fill="none" xmlns="http://www.w3.org/2000/svg">
<path d="M2.78906 2.78906C2.52656 2.24121 2.04844 1.875 1.5 1.875C0.672656 1.875 0 2.71582 0 3.75C0 4.58203 0.433594 5.28809 1.03359 5.53125C0.850781 6.14355 0.75 6.80859 0.75 7.5C0.75 10.6055 2.76562 13.125 5.25 13.125C6.76641 13.125 8.10703 12.1875 8.92266 10.752L12.3984 13.0195C12.5063 13.0898 12.6234 13.125 12.7453 13.125H12.7922C13.0031 13.125 13.2047 13.0137 13.3477 12.8174L14.8312 10.7783C14.9391 10.6289 15 10.4355 15 10.2363C15 9.99023 14.9086 9.75586 14.7539 9.60352L8.26172 3.18457C7.40391 2.33496 6.34219 1.875 5.25 1.875C4.34062 1.875 3.49688 2.21191 2.78906 2.78906ZM1.60547 4.20117C1.57266 4.21289 1.5375 4.21875 1.5 4.21875C1.29375 4.21875 1.125 4.00781 1.125 3.75C1.125 3.49219 1.29375 3.28125 1.5 3.28125C1.70625 3.28125 1.875 3.49219 1.875 3.75C1.875 3.75879 1.875 3.77051 1.875 3.7793C1.78125 3.91406 1.68984 4.05469 1.60547 4.19824V4.20117ZM9.44297 9.50391C8.94375 9.17871 8.32969 9.36328 8.00391 9.9375C7.39219 11.0186 6.38672 11.7188 5.25 11.7188C3.38672 11.7188 1.875 9.8291 1.875 7.5C1.875 5.1709 3.38672 3.28125 5.25 3.28125C6.08906 3.28125 6.90469 3.63574 7.56328 4.28613L9.20391 5.90918L8.925 6.375C8.7375 6.68555 8.78906 7.125 9.0375 7.35938C9.28594 7.59375 9.6375 7.5293 9.825 7.21875L10.0875 6.78223L13.6547 10.3066L12.6961 11.625L9.44297 9.50391ZM5.25 8.90625C5.54837 8.90625 5.83452 8.75809 6.0455 8.49437C6.25647 8.23065 6.375 7.87296 6.375 7.5C6.375 7.12704 6.25647 6.76935 6.0455 6.50563C5.83452 6.24191 5.54837 6.09375 5.25 6.09375C4.95163 6.09375 4.66548 6.24191 4.4545 6.50563C4.24353 6.76935 4.125 7.12704 4.125 7.5C4.125 7.87296 4.24353 8.23065 4.4545 8.49437C4.66548 8.75809 4.95163 8.90625 5.25 8.90625Z" fill="#292929"/>
</svg>
