<svg width="15" height="14" viewBox="0 0 15 14" fill="none" xmlns="http://www.w3.org/2000/svg">
<path d="M14.1667 0.836147C14.6276 0.836147 15 1.2098 15 1.6723V11.7061C15 12.1686 14.6276 12.5422 14.1667 12.5422C13.7057 12.5422 13.3333 12.1686 13.3333 11.7061V1.6723C13.3333 1.2098 13.7057 0.836147 14.1667 0.836147ZM1.66667 4.97247L12.5 1.6723V11.7061L9.08594 10.6661C8.80729 11.7453 7.83073 12.5422 6.66667 12.5422C5.28646 12.5422 4.16667 11.4187 4.16667 10.0338C4.16667 9.74636 4.21615 9.46677 4.30469 9.2107L1.66667 8.40591C1.64323 8.8475 1.27865 9.19763 0.833333 9.19763C0.372396 9.19763 0 8.82398 0 8.36148V5.01689C0 4.5544 0.372396 4.18074 0.833333 4.18074C1.27865 4.18074 1.64323 4.53088 1.66667 4.97247ZM7.89062 10.3003L5.50521 9.5739C5.45052 9.715 5.41927 9.87178 5.41927 10.0338C5.41927 10.7262 5.97917 11.288 6.66927 11.288C7.26823 11.288 7.76823 10.8647 7.89062 10.3003Z" fill="#686868"/>
</svg>
