<svg width="26" height="28" viewBox="0 0 26 28" fill="none" xmlns="http://www.w3.org/2000/svg">
<mask id="path-1-inside-1_6_245" fill="white">
<path d="M2.79004 24C2.79004 19.5817 6.37176 16 10.79 16H14.79C19.2083 16 22.79 19.5817 22.79 24C22.79 24.5523 22.3423 25 21.79 25H3.79004C3.23775 25 2.79004 24.5523 2.79004 24Z"/>
</mask>
<path d="M2.79004 24C2.79004 19.5817 6.37176 16 10.79 16H14.79C19.2083 16 22.79 19.5817 22.79 24C22.79 24.5523 22.3423 25 21.79 25H3.79004C3.23775 25 2.79004 24.5523 2.79004 24Z" stroke="#797979" stroke-width="3" mask="url(#path-1-inside-1_6_245)"/>
<circle cx="12.79" cy="8.5" r="4.75" stroke="#797979" stroke-width="1.5"/>
</svg>
