<svg width="20" height="20" viewBox="0 0 20 20" fill="none" xmlns="http://www.w3.org/2000/svg">
<g clip-path="url(#clip0_6_250)">
<path d="M8.72265 1.47656C8.73828 1.41797 8.77343 1.36719 8.8164 1.32812C9.20312 1.27734 9.59765 1.25 10 1.25C10.4023 1.25 10.7969 1.27734 11.1836 1.32812C11.2266 1.36719 11.2578 1.41797 11.2773 1.47656L11.8125 3.33984C11.9492 3.8125 12.2891 4.16406 12.6914 4.35938C12.9883 4.5 13.2695 4.66406 13.5391 4.84766C13.9062 5.10156 14.3867 5.21875 14.8633 5.10156L16.7461 4.63281C16.8047 4.61719 16.8633 4.62109 16.918 4.64062C17.1289 4.91016 17.3242 5.19531 17.5 5.49219L17.668 5.78125C17.832 6.07422 17.9766 6.37891 18.1055 6.69141C18.0937 6.75 18.0664 6.80469 18.0234 6.84766L16.6719 8.24219C16.332 8.59375 16.1953 9.06641 16.2305 9.51172C16.2422 9.67188 16.25 9.83594 16.25 10C16.25 10.1641 16.2422 10.3281 16.2305 10.4883C16.1953 10.9336 16.332 11.4062 16.6719 11.7578L18.0195 13.1523C18.0625 13.1953 18.0898 13.25 18.1016 13.3086C17.9727 13.6211 17.8281 13.9258 17.6641 14.2227L17.5 14.5078C17.3203 14.8047 17.125 15.0859 16.918 15.3594C16.8633 15.3789 16.8047 15.3789 16.7461 15.3672L14.8633 14.8984C14.3867 14.7812 13.9102 14.8984 13.5391 15.1523C13.2695 15.3359 12.9883 15.5 12.6914 15.6406C12.2891 15.832 11.9453 16.1875 11.8125 16.6602L11.2773 18.5234C11.2617 18.582 11.2266 18.6328 11.1836 18.6719C10.7969 18.7227 10.4023 18.75 10 18.75C9.59765 18.75 9.20312 18.7227 8.8164 18.6719C8.77343 18.6328 8.74218 18.582 8.72265 18.5234L8.1875 16.6602C8.05078 16.1875 7.71093 15.8359 7.30859 15.6406C7.01172 15.5 6.73046 15.3359 6.46093 15.1523C6.09375 14.8984 5.61328 14.7812 5.13672 14.8984L3.2539 15.3672C3.19531 15.3828 3.13671 15.3789 3.08203 15.3594C2.87109 15.0859 2.67578 14.8047 2.49609 14.5078L2.33203 14.2227C2.16796 13.9297 2.02343 13.625 1.89453 13.3086C1.90625 13.25 1.93359 13.1953 1.97656 13.1523L3.32812 11.7578C3.66796 11.4062 3.80468 10.9336 3.76953 10.4883C3.75781 10.3281 3.75 10.1641 3.75 10C3.75 9.83594 3.75781 9.67188 3.76953 9.51172C3.80468 9.06641 3.66796 8.59375 3.32812 8.24219L1.98046 6.84375C1.9375 6.80078 1.91015 6.74609 1.89843 6.6875C2.02734 6.375 2.17187 6.07031 2.33593 5.77344L2.5 5.48828C2.67968 5.19141 2.875 4.91016 3.08593 4.63672C3.14062 4.61719 3.19922 4.61719 3.25781 4.62891L5.14062 5.09766C5.61718 5.21484 6.09375 5.09766 6.46484 4.84375C6.73437 4.66016 7.01562 4.49609 7.3125 4.35547C7.71484 4.16406 8.05859 3.80859 8.1914 3.33594L8.72656 1.47266L8.72265 1.47656ZM10 0C9.49218 0 8.98828 0.0390625 8.5 0.113281C8.43359 0.125 8.36718 0.144531 8.30468 0.175781C7.93359 0.367188 7.64453 0.707031 7.52343 1.13281L6.98828 2.99609C6.96484 3.08203 6.89062 3.17188 6.76953 3.23047C6.41406 3.39844 6.07421 3.59766 5.7539 3.81641C5.64453 3.89062 5.52734 3.91016 5.4414 3.88672L3.55859 3.41797C3.13281 3.3125 2.69531 3.39453 2.34375 3.61719C2.28515 3.65234 2.23437 3.69922 2.1914 3.75391C1.91406 4.10156 1.65625 4.46484 1.42578 4.84766L1.42187 4.85938L1.25 5.15625L1.24609 5.16797C1.03515 5.55078 0.847652 5.94531 0.687496 6.35547C0.664058 6.41797 0.648433 6.48438 0.644527 6.55078C0.624996 6.97266 0.773433 7.39453 1.08203 7.71484L2.42968 9.10938C2.49218 9.17578 2.53515 9.28125 2.52343 9.41406C2.50781 9.60938 2.5 9.80469 2.5 10C2.5 10.1953 2.50781 10.3945 2.52343 10.5859C2.53515 10.7188 2.49218 10.8281 2.42968 10.8906L1.08203 12.2891C0.773433 12.6094 0.624996 13.0312 0.644527 13.4531C0.648433 13.5195 0.664058 13.5859 0.687496 13.6484C0.847652 14.0586 1.03515 14.4531 1.24609 14.8359L1.25 14.8477L1.42187 15.1445L1.42578 15.1562C1.65625 15.5391 1.91015 15.9062 2.1914 16.2539C2.23437 16.3086 2.28515 16.3555 2.34375 16.3906C2.69531 16.6133 3.13281 16.6953 3.55859 16.5898L5.4414 16.1211C5.52734 16.0977 5.64453 16.1172 5.7539 16.1914C6.07421 16.4141 6.41406 16.6094 6.76953 16.7773C6.89062 16.8359 6.96093 16.9258 6.98828 17.0117L7.52343 18.8672C7.64453 19.2891 7.93359 19.6289 8.30468 19.8242C8.36718 19.8555 8.42968 19.8789 8.5 19.8867C8.98828 19.9609 9.49218 20 10 20C10.5078 20 11.0117 19.9609 11.5 19.8867C11.5664 19.875 11.6328 19.8555 11.6953 19.8242C12.0664 19.6328 12.3555 19.293 12.4766 18.8672L13.0117 17.0039C13.0352 16.918 13.1094 16.8281 13.2305 16.7695C13.5859 16.6016 13.9258 16.4023 14.2461 16.1836C14.3555 16.1094 14.4727 16.0898 14.5586 16.1133L16.4414 16.582C16.8672 16.6875 17.3047 16.6094 17.6562 16.3828C17.7148 16.3477 17.7656 16.3008 17.8086 16.2461C18.0859 15.8984 18.3398 15.5352 18.5703 15.1523L18.5781 15.1406L18.75 14.8438L18.7539 14.832C18.9648 14.4531 19.1523 14.0547 19.3125 13.6445C19.3359 13.582 19.3516 13.5156 19.3555 13.4492C19.375 13.0273 19.2266 12.6055 18.918 12.2852L17.5703 10.8906C17.5078 10.8242 17.4648 10.7188 17.4766 10.5859C17.4922 10.3906 17.5 10.1953 17.5 10C17.5 9.80469 17.4922 9.60547 17.4766 9.41406C17.4648 9.28125 17.5078 9.17188 17.5703 9.10938L18.918 7.71484C19.2266 7.39453 19.375 6.97266 19.3555 6.55078C19.3516 6.48438 19.3359 6.41797 19.3125 6.35547C19.1523 5.94531 18.9648 5.55078 18.7539 5.16797L18.75 5.15625L18.5781 4.85938L18.5703 4.84766C18.3398 4.46484 18.0859 4.09766 17.8086 3.75391C17.7656 3.69922 17.7148 3.65234 17.6562 3.61719C17.3047 3.39453 16.8672 3.3125 16.4414 3.41797L14.5586 3.88672C14.4727 3.91016 14.3555 3.89062 14.2461 3.81641C13.9258 3.59375 13.5859 3.39844 13.2305 3.23047C13.1094 3.17188 13.0391 3.08203 13.0117 2.99609L12.4766 1.13281C12.3555 0.710938 12.0664 0.371094 11.6953 0.175781C11.6328 0.144531 11.5703 0.121094 11.5 0.113281C11.0117 0.0390625 10.5078 0 10 0ZM7.8125 10C7.8125 9.41984 8.04296 8.86344 8.4532 8.4532C8.86344 8.04297 9.41984 7.8125 10 7.8125C10.5802 7.8125 11.1366 8.04297 11.5468 8.4532C11.957 8.86344 12.1875 9.41984 12.1875 10C12.1875 10.5802 11.957 11.1366 11.5468 11.5468C11.1366 11.957 10.5802 12.1875 10 12.1875C9.41984 12.1875 8.86344 11.957 8.4532 11.5468C8.04296 11.1366 7.8125 10.5802 7.8125 10ZM13.4375 10C13.4375 9.08832 13.0753 8.21398 12.4307 7.56932C11.786 6.92466 10.9117 6.5625 10 6.5625C9.08832 6.5625 8.21397 6.92466 7.56932 7.56932C6.92466 8.21398 6.5625 9.08832 6.5625 10C6.5625 10.9117 6.92466 11.786 7.56932 12.4307C8.21397 13.0753 9.08832 13.4375 10 13.4375C10.9117 13.4375 11.786 13.0753 12.4307 12.4307C13.0753 11.786 13.4375 10.9117 13.4375 10Z" fill="#292929"/>
</g>
<defs>
<clipPath id="clip0_6_250">
<rect width="20" height="20" fill="white"/>
</clipPath>
</defs>
</svg>
