<svg width="15" height="15" viewBox="0 0 15 15" fill="none" xmlns="http://www.w3.org/2000/svg">
<g clip-path="url(#clip0_6_470)">
<path d="M1.875 3.86426C1.875 3.28418 2.34668 2.8125 2.92676 2.8125C3.20508 2.8125 3.47168 2.92383 3.6709 3.12012L4.14551 3.59473C3.53027 4.73438 3.63574 6.1582 4.46484 7.19824L4.42383 7.23633C4.14844 7.51172 4.14844 7.95703 4.42383 8.22949C4.69922 8.50195 5.14453 8.50488 5.41699 8.22949L10.1074 3.54492C10.3828 3.26953 10.3828 2.82422 10.1074 2.55176C9.83203 2.2793 9.38672 2.27637 9.11426 2.55176L9.07617 2.58984C8.03613 1.76074 6.60938 1.65527 5.47266 2.27051L4.99512 1.7959C4.44727 1.24512 3.70312 0.9375 2.92676 0.9375C1.30957 0.9375 0 2.24707 0 3.86426V13.125C0 13.6436 0.418945 14.0625 0.9375 14.0625C1.45605 14.0625 1.875 13.6436 1.875 13.125V3.86426ZM7.5 10.3125C7.74864 10.3125 7.9871 10.2137 8.16291 10.0379C8.33873 9.8621 8.4375 9.62364 8.4375 9.375C8.4375 9.12636 8.33873 8.8879 8.16291 8.71209C7.9871 8.53627 7.74864 8.4375 7.5 8.4375C7.25136 8.4375 7.0129 8.53627 6.83709 8.71209C6.66127 8.8879 6.5625 9.12636 6.5625 9.375C6.5625 9.62364 6.66127 9.8621 6.83709 10.0379C7.0129 10.2137 7.25136 10.3125 7.5 10.3125ZM9.375 12.1875C9.375 11.9389 9.27623 11.7004 9.10041 11.5246C8.9246 11.3488 8.68614 11.25 8.4375 11.25C8.18886 11.25 7.9504 11.3488 7.77459 11.5246C7.59877 11.7004 7.5 11.9389 7.5 12.1875C7.5 12.4361 7.59877 12.6746 7.77459 12.8504C7.9504 13.0262 8.18886 13.125 8.4375 13.125C8.68614 13.125 8.9246 13.0262 9.10041 12.8504C9.27623 12.6746 9.375 12.4361 9.375 12.1875ZM9.375 8.4375C9.62364 8.4375 9.8621 8.33873 10.0379 8.16291C10.2137 7.9871 10.3125 7.74864 10.3125 7.5C10.3125 7.25136 10.2137 7.0129 10.0379 6.83709C9.8621 6.66127 9.62364 6.5625 9.375 6.5625C9.12636 6.5625 8.8879 6.66127 8.71209 6.83709C8.53627 7.0129 8.4375 7.25136 8.4375 7.5C8.4375 7.74864 8.53627 7.9871 8.71209 8.16291C8.8879 8.33873 9.12636 8.4375 9.375 8.4375ZM11.25 10.3125C11.25 10.0639 11.1512 9.8254 10.9754 9.64959C10.7996 9.47377 10.5611 9.375 10.3125 9.375C10.0639 9.375 9.8254 9.47377 9.64959 9.64959C9.47377 9.8254 9.375 10.0639 9.375 10.3125C9.375 10.5611 9.47377 10.7996 9.64959 10.9754C9.8254 11.1512 10.0639 11.25 10.3125 11.25C10.5611 11.25 10.7996 11.1512 10.9754 10.9754C11.1512 10.7996 11.25 10.5611 11.25 10.3125ZM11.25 6.5625C11.4986 6.5625 11.7371 6.46373 11.9129 6.28791C12.0887 6.1121 12.1875 5.87364 12.1875 5.625C12.1875 5.37636 12.0887 5.1379 11.9129 4.96209C11.7371 4.78627 11.4986 4.6875 11.25 4.6875C11.0014 4.6875 10.7629 4.78627 10.5871 4.96209C10.4113 5.1379 10.3125 5.37636 10.3125 5.625C10.3125 5.87364 10.4113 6.1121 10.5871 6.28791C10.7629 6.46373 11.0014 6.5625 11.25 6.5625ZM13.125 8.4375C13.125 8.18886 13.0262 7.9504 12.8504 7.77459C12.6746 7.59877 12.4361 7.5 12.1875 7.5C11.9389 7.5 11.7004 7.59877 11.5246 7.77459C11.3488 7.9504 11.25 8.18886 11.25 8.4375C11.25 8.68614 11.3488 8.9246 11.5246 9.10041C11.7004 9.27623 11.9389 9.375 12.1875 9.375C12.4361 9.375 12.6746 9.27623 12.8504 9.10041C13.0262 8.9246 13.125 8.68614 13.125 8.4375ZM14.0625 7.5C14.3111 7.5 14.5496 7.40123 14.7254 7.22541C14.9012 7.0496 15 6.81114 15 6.5625C15 6.31386 14.9012 6.0754 14.7254 5.89959C14.5496 5.72377 14.3111 5.625 14.0625 5.625C13.8139 5.625 13.5754 5.72377 13.3996 5.89959C13.2238 6.0754 13.125 6.31386 13.125 6.5625C13.125 6.81114 13.2238 7.0496 13.3996 7.22541C13.5754 7.40123 13.8139 7.5 14.0625 7.5Z" fill="#686868"/>
</g>
<defs>
<clipPath id="clip0_6_470">
<rect width="15" height="15" fill="white"/>
</clipPath>
</defs>
</svg>
