<svg width="15" height="15" viewBox="0 0 15 15" fill="none" xmlns="http://www.w3.org/2000/svg">
<g clip-path="url(#clip0_6_446)">
<path d="M1.5 3.75C1.5 3.23145 1.83516 2.8125 2.25 2.8125H12.75C13.1648 2.8125 13.5 3.23145 13.5 3.75V13.125C13.5 13.6436 13.8352 14.0625 14.25 14.0625C14.6648 14.0625 15 13.6436 15 13.125V3.75C15 2.19727 13.9922 0.9375 12.75 0.9375H2.25C1.00781 0.9375 0 2.19727 0 3.75V13.125C0 13.6436 0.335156 14.0625 0.75 14.0625C1.16484 14.0625 1.5 13.6436 1.5 13.125V3.75ZM4.125 3.75C3.91875 3.75 3.75 3.96094 3.75 4.21875V5.625H2.625C2.41875 5.625 2.25 5.83594 2.25 6.09375C2.25 6.35156 2.41875 6.5625 2.625 6.5625H3.75V8.4375H2.625C2.41875 8.4375 2.25 8.64844 2.25 8.90625C2.25 9.16406 2.41875 9.375 2.625 9.375H3.75V11.25H2.625C2.41875 11.25 2.25 11.4609 2.25 11.7188C2.25 11.9766 2.41875 12.1875 2.625 12.1875H3.75V13.5938C3.75 13.8516 3.91875 14.0625 4.125 14.0625C4.33125 14.0625 4.5 13.8516 4.5 13.5938V12.1875H6V13.5938C6 13.8516 6.16875 14.0625 6.375 14.0625C6.58125 14.0625 6.75 13.8516 6.75 13.5938V12.1875H8.25V13.5938C8.25 13.8516 8.41875 14.0625 8.625 14.0625C8.83125 14.0625 9 13.8516 9 13.5938V12.1875H10.5V13.5938C10.5 13.8516 10.6687 14.0625 10.875 14.0625C11.0813 14.0625 11.25 13.8516 11.25 13.5938V12.1875H12.375C12.5813 12.1875 12.75 11.9766 12.75 11.7188C12.75 11.4609 12.5813 11.25 12.375 11.25H11.25V9.375H12.375C12.5813 9.375 12.75 9.16406 12.75 8.90625C12.75 8.64844 12.5813 8.4375 12.375 8.4375H11.25V6.5625H12.375C12.5813 6.5625 12.75 6.35156 12.75 6.09375C12.75 5.83594 12.5813 5.625 12.375 5.625H11.25V4.21875C11.25 3.96094 11.0813 3.75 10.875 3.75C10.6687 3.75 10.5 3.96094 10.5 4.21875V5.625H9V4.21875C9 3.96094 8.83125 3.75 8.625 3.75C8.41875 3.75 8.25 3.96094 8.25 4.21875V5.625H6.75V4.21875C6.75 3.96094 6.58125 3.75 6.375 3.75C6.16875 3.75 6 3.96094 6 4.21875V5.625H4.5V4.21875C4.5 3.96094 4.33125 3.75 4.125 3.75ZM6 11.25H4.5V9.375H6V11.25ZM8.25 11.25H6.75V9.375H8.25V11.25ZM10.5 11.25H9V9.375H10.5V11.25ZM10.5 8.4375H9V6.5625H10.5V8.4375ZM8.25 8.4375H6.75V6.5625H8.25V8.4375ZM6 8.4375H4.5V6.5625H6V8.4375Z" fill="#292929"/>
</g>
<defs>
<clipPath id="clip0_6_446">
<rect width="15" height="15" fill="white"/>
</clipPath>
</defs>
</svg>
