<svg width="26" height="26" viewBox="0 0 26 26" fill="none" xmlns="http://www.w3.org/2000/svg">
<path d="M22.3912 12.795C22.3912 18.0948 18.0948 22.3912 12.795 22.3912C11.5185 22.3912 10.3003 22.142 9.18625 21.6896C8.97303 21.603 8.86643 21.5597 8.78025 21.5404C8.69595 21.5215 8.63357 21.5146 8.54718 21.5146C8.45887 21.5145 8.36267 21.5306 8.17028 21.5626L4.37668 22.1949C3.97942 22.2611 3.78079 22.2942 3.63716 22.2326C3.51144 22.1787 3.41127 22.0785 3.35735 21.9528C3.29574 21.8092 3.32885 21.6105 3.39506 21.2133L4.02732 17.4197C4.05939 17.2273 4.07542 17.1311 4.07541 17.0428C4.0754 16.9564 4.06849 16.894 4.04959 16.8097C4.03028 16.7235 3.98698 16.6169 3.90039 16.4037C3.44795 15.2897 3.19873 14.0714 3.19873 12.795C3.19873 7.49512 7.49512 3.19873 12.795 3.19873C18.0948 3.19873 22.3912 7.49512 22.3912 12.795Z" stroke="#767676" stroke-width="1.5" stroke-linecap="round" stroke-linejoin="round"/>
</svg>
