<svg width="15" height="15" viewBox="0 0 15 15" fill="none" xmlns="http://www.w3.org/2000/svg">
<g clip-path="url(#clip0_6_435)">
<path d="M7.4974 0C7.73698 0 7.95573 0.152344 8.0599 0.395508L9.84635 4.53516L13.8359 5.19727C14.0703 5.23535 14.2656 5.41992 14.3385 5.6748C14.4115 5.92969 14.3516 6.20508 14.1849 6.39258L11.2917 9.62109L11.974 14.1797C12.013 14.4434 11.9167 14.71 11.724 14.8682C11.5313 15.0264 11.2734 15.0439 11.0651 14.918L7.4974 12.7734L3.93229 14.915C3.72136 15.041 3.46615 15.0234 3.27344 14.8652C3.08073 14.707 2.98177 14.4404 3.02083 14.1768L3.70313 9.61816L0.809897 6.39258C0.640626 6.20508 0.583334 5.92676 0.656251 5.6748C0.729168 5.42285 0.92448 5.23828 1.15886 5.19727L5.14844 4.53516L6.9349 0.395508C7.04167 0.152344 7.25781 0 7.4974 0ZM7.4974 2.31445L6.13021 5.48438C6.03906 5.69238 5.86458 5.83887 5.65885 5.87402L2.57813 6.38379L4.8151 8.87695C4.95833 9.03809 5.02604 9.2666 4.99219 9.49219L4.46354 12.999L7.20313 11.3525C7.38802 11.2412 7.60938 11.2412 7.79167 11.3525L10.5312 12.999L10.0052 9.49512C9.97135 9.26953 10.0365 9.04102 10.1823 8.87988L12.4193 6.38672L9.33854 5.87402C9.13542 5.83887 8.95833 5.69531 8.86719 5.48438L7.4974 2.31445Z" fill="#292929"/>
</g>
<defs>
<clipPath id="clip0_6_435">
<rect width="15" height="15" fill="white"/>
</clipPath>
</defs>
</svg>
