<svg width="15" height="15" viewBox="0 0 15 15" fill="none" xmlns="http://www.w3.org/2000/svg">
<g clip-path="url(#clip0_6_475)">
<path d="M4.5 1.875C4.5 1.37772 4.34196 0.900806 4.06066 0.549175C3.77935 0.197544 3.39782 0 3 0C2.60217 0 2.22064 0.197544 1.93934 0.549175C1.65803 0.900806 1.5 1.37772 1.5 1.875C1.5 2.37228 1.65803 2.84919 1.93934 3.20083C2.22064 3.55246 2.60217 3.75 3 3.75C3.39782 3.75 3.77935 3.55246 4.06066 3.20083C4.34196 2.84919 4.5 2.37228 4.5 1.875ZM0.607029 6.83789L0.510935 8.28223C0.452341 9.15527 0.878904 9.92578 1.5 10.2041V13.5938C1.5 14.3701 2.0039 15 2.625 15H3.375C3.99609 15 4.5 14.3701 4.5 13.5938V10.2041C5.12109 9.92578 5.54765 9.15527 5.48906 8.28223L5.39297 6.83789C5.31328 5.62207 4.5 4.6875 3.525 4.6875H2.475C1.5 4.6875 0.686716 5.62207 0.607029 6.83789ZM7.5 0C7.18828 0 6.9375 0.313477 6.9375 0.703125V14.2969C6.9375 14.6865 7.18828 15 7.5 15C7.81172 15 8.0625 14.6865 8.0625 14.2969V0.703125C8.0625 0.313477 7.81172 0 7.5 0ZM12 3.75C12.3978 3.75 12.7794 3.55246 13.0607 3.20083C13.342 2.84919 13.5 2.37228 13.5 1.875C13.5 1.37772 13.342 0.900806 13.0607 0.549175C12.7794 0.197544 12.3978 0 12 0C11.6022 0 11.2206 0.197544 10.9393 0.549175C10.658 0.900806 10.5 1.37772 10.5 1.875C10.5 2.37228 10.658 2.84919 10.9393 3.20083C11.2206 3.55246 11.6022 3.75 12 3.75ZM11.632 4.6875C10.9617 4.6875 10.3734 5.24121 10.1906 6.04688L9.27422 10.0547C9.13828 10.6523 9.49687 11.25 9.99609 11.25H10.5V13.5938C10.5 14.3701 11.0039 15 11.625 15H12.375C12.9961 15 13.5 14.3701 13.5 13.5938V11.25H14.0062C14.5055 11.25 14.8641 10.6553 14.7281 10.0547L13.8117 6.04688C13.6289 5.24121 13.0383 4.6875 12.3703 4.6875H11.632Z" fill="#686868"/>
</g>
<defs>
<clipPath id="clip0_6_475">
<rect width="15" height="15" fill="white"/>
</clipPath>
</defs>
</svg>
